<?xml version="1.0" encoding="iso-8859-1"?>
<!-- Generator: Adobe Illustrator 19.0.0, SVG Export Plug-In . SVG Version: 6.00 Build 0)  -->
<svg version="1.1" id="Layer_1" xmlns="http://www.w3.org/2000/svg" xmlns:xlink="http://www.w3.org/1999/xlink" x="0px" y="0px"
	 viewBox="0 0 511.998 511.998" style="enable-background:new 0 0 511.998 511.998;" xml:space="preserve">
<g>
	<g>
		<path d="M396.767,175.648h-27.969l1.823,45.659h26.146c15.04,0,27.275,11.886,27.275,26.925V410.33
			c0,15.04-12.235,27.094-27.275,27.094h-17.495l1.823,45.659h15.673c40.216,0,72.934-32.536,72.934-72.753V248.233
			C469.701,208.016,436.983,175.648,396.767,175.648z"/>
	</g>
</g>
<g>
	<g>
		<path d="M346.305,146.73h-42.164c-16.443,24.351-43.91,43.134-75.504,46.624c-3.752,0.412-7.509,0.435-11.249,0.435
			c-9.416,0-18.746-1.479-27.729-3.988v51.29c0,5.884-4.77,10.654-10.654,10.654c-5.884,0-10.654-4.77-10.654-10.654v-53.268
			c0-2.122,0.627-4.093,1.697-5.755c-7.534-3.89-14.634-8.334-21.084-14.054c-6.936-6.15-12.655-13.676-16.977-21.286H59.882
			L46.137,490.612c-0.236,5.91,1.89,11.011,5.989,15.274c4.096,4.265,9.61,6.112,15.524,6.112h270.887
			c5.914,0,11.428-2.03,15.524-6.295c4.097-4.265,6.225-9.34,5.989-15.25L346.305,146.73z M125.739,277.619
			c0,5.884-4.77,10.654-10.654,10.654c-5.884,0-10.654-4.77-10.654-10.654v-65.444c0-5.884,4.77-10.654,10.654-10.654
			c5.884,0,10.654,4.77,10.654,10.654V277.619z"/>
	</g>
</g>
<g>
	<g>
		<path d="M301.549,39.404c-15.536,0-30.419,5.657-41.907,16.095c-2.648,2.409-6.328,3.278-9.797,2.393
			c-3.469-0.884-6.26-3.475-7.433-6.855C231.83,20.516,203.015,0,170.711,0c-33.988,0-64.059,22.855-73.125,55.586
			c-1.418,5.118-6.395,8.403-11.648,7.718c-1.755-0.23-3.403-0.16-5.039-0.16c-21.286,0-38.603,17.498-38.603,38.784
			c0,8.409,2.711,15.885,7.706,23.494h74.323c-0.95-4.566-1.528-9.628-1.665-14.37c-0.169-5.881,4.462-10.969,10.343-11.139
			c5.809-0.201,10.786,4.37,10.955,10.252c0.463,16.078,7.441,31.208,19.145,41.587c17.256,15.302,40.289,22.604,63.193,20.078
			c36.388-4.019,65.878-32.058,71.715-68.173c0.938-5.806,6.401-9.766,12.217-8.823c5.808,0.938,9.756,6.773,8.817,12.581
			c-0.983,6.08-2.513,11.918-4.51,18.006h44.916c2.95-7.61,4.44-15.454,4.44-23.494C363.89,67.552,335.924,39.404,301.549,39.404z"
			/>
	</g>
</g>
<g>
</g>
<g>
</g>
<g>
</g>
<g>
</g>
<g>
</g>
<g>
</g>
<g>
</g>
<g>
</g>
<g>
</g>
<g>
</g>
<g>
</g>
<g>
</g>
<g>
</g>
<g>
</g>
<g>
</g>
</svg>
