<svg xmlns="http://www.w3.org/2000/svg" xmlns:xlink="http://www.w3.org/1999/xlink" version="1.1" width="256" height="256" viewBox="0 0 256 256" xml:space="preserve">

<defs>
</defs>
<g style="stroke: none; stroke-width: 0; stroke-dasharray: none; stroke-linecap: butt; stroke-linejoin: miter; stroke-miterlimit: 10; fill: none; fill-rule: nonzero; opacity: 1;" transform="translate(1.4065934065934016 1.4065934065934016) scale(2.81 2.81)" >
	<path d="M 45 90 C 20.187 90 0 69.813 0 45 C 0 20.187 20.187 0 45 0 c 24.813 0 45 20.187 45 45 C 90 69.813 69.813 90 45 90 z M 45 10 c -19.299 0 -35 15.701 -35 35 s 15.701 35 35 35 s 35 -15.701 35 -35 S 64.299 10 45 10 z" style="stroke: none; stroke-width: 1; stroke-dasharray: none; stroke-linecap: butt; stroke-linejoin: miter; stroke-miterlimit: 10; fill: rgb(0,0,0); fill-rule: nonzero; opacity: 1;" transform=" matrix(1 0 0 1 0 0) " stroke-linecap="round" />
	<path d="M 46.173 70 c -13.785 0 -25 -11.215 -25 -25 s 11.215 -25 25 -25 c 3.938 0 7.87 0.946 11.37 2.737 c 2.458 1.258 3.432 4.27 2.174 6.729 c -1.258 2.459 -4.269 3.433 -6.729 2.174 c -2.127 -1.088 -4.42 -1.64 -6.815 -1.64 c -8.271 0 -15 6.729 -15 15 c 0 8.271 6.729 15 15 15 c 2.396 0 4.688 -0.552 6.816 -1.64 c 2.455 -1.258 5.471 -0.286 6.728 2.175 c 1.258 2.458 0.284 5.471 -2.175 6.728 C 54.042 69.054 50.11 70 46.173 70 z" style="stroke: none; stroke-width: 1; stroke-dasharray: none; stroke-linecap: butt; stroke-linejoin: miter; stroke-miterlimit: 10; fill: rgb(0,0,0); fill-rule: nonzero; opacity: 1;" transform=" matrix(1 0 0 1 0 0) " stroke-linecap="round" />
</g>
</svg>